<?xml version="1.0" standalone="no"?>
<!DOCTYPE svg PUBLIC "-//W3C//DTD SVG 20010904//EN"
 "http://www.w3.org/TR/2001/REC-SVG-20010904/DTD/svg10.dtd">
<svg version="1.0" xmlns="http://www.w3.org/2000/svg"
 width="318.000000pt" height="159.000000pt" viewBox="0 0 318.000000 159.000000"
 preserveAspectRatio="xMidYMid meet">

<g transform="translate(0.000000,159.000000) scale(0.100000,-0.100000)"
fill="#000000" stroke="none">
<path d="M0 795 l0 -795 1590 0 1590 0 0 795 0 795 -1590 0 -1590 0 0 -795z
m1233 308 c-13 -2 -32 -16 -43 -30 -11 -14 -22 -24 -25 -22 -10 11 47 59 68
58 l22 -2 -22 -4z m-90 -83 c-3 -11 -9 -20 -15 -20 -5 0 -4 9 2 20 6 11 12 20
14 20 2 0 2 -9 -1 -20z m-83 -80 c-6 -11 -13 -20 -16 -20 -2 0 0 9 6 20 6 11
13 20 16 20 2 0 0 -9 -6 -20z m-22 -62 c0 -51 13 -102 28 -111 8 -4 14 -19 14
-32 0 -15 6 -25 14 -25 22 0 25 -22 9 -54 -12 -24 -13 -30 -1 -37 10 -7 9 -9
-4 -9 -10 0 -18 4 -18 9 0 5 -3 16 -6 24 -3 8 2 21 11 30 8 9 11 18 6 22 -12
7 -26 -18 -36 -62 -6 -29 -8 -31 -26 -20 -10 6 -19 16 -19 20 0 5 -6 15 -14
22 -11 12 -14 5 -15 -42 0 -31 -3 -59 -6 -62 -3 -3 -5 21 -4 52 1 32 -1 60 -4
64 -4 3 -7 1 -7 -5 0 -7 -5 -12 -11 -12 -6 0 -9 7 -5 15 3 8 2 14 -2 14 -4 -1
-13 -1 -20 0 -21 2 -3 21 20 21 16 0 18 3 10 13 -12 14 0 38 45 87 13 14 23
34 23 45 0 22 10 65 15 65 2 0 4 -15 3 -32z m-281 -50 c-3 -7 -5 -2 -5 12 0
14 2 19 5 13 2 -7 2 -19 0 -25z m192 12 c6 8 12 12 15 9 9 -9 -24 -70 -34 -64
-5 3 -11 1 -15 -5 -11 -17 -21 -11 -20 13 0 33 25 63 37 45 6 -10 10 -10 17 2z
m-221 -85 c-2 -21 -4 -23 -16 -11 -8 8 -11 19 -8 25 13 20 26 12 24 -14z m570
-98 c-3 -37 -1 -54 5 -48 6 6 12 35 15 64 4 48 7 54 24 49 17 -4 19 -11 15
-46 -3 -23 -9 -58 -15 -78 -7 -26 -6 -40 2 -49 8 -9 6 -10 -11 -6 -12 3 -22 2
-21 -2 1 -3 -4 -17 -11 -31 -11 -24 -11 -24 -8 8 5 49 -10 49 -24 0 -10 -36
-13 -40 -20 -23 -5 13 -8 15 -8 5 -2 -23 -42 45 -42 69 1 12 1 30 2 41 0 20
53 135 72 159 17 20 30 -40 25 -112z m255 68 c-3 -9 -8 -14 -10 -11 -3 3 -2 9
2 15 9 16 15 13 8 -4z m348 -42 c-12 -20 -14 -14 -5 12 4 9 9 14 11 11 3 -2 0
-13 -6 -23z m-467 -28 c-3 -7 -1 -16 5 -20 6 -3 11 -1 11 4 0 6 5 11 10 11 6
0 10 -8 10 -18 0 -22 51 -103 61 -96 11 6 1 74 -16 108 -8 16 -14 31 -12 33 6
5 48 -57 46 -70 -4 -29 2 -38 23 -35 25 3 34 -18 24 -58 -4 -15 -14 -24 -26
-24 -11 0 -20 -5 -20 -11 0 -5 5 -7 10 -4 6 3 10 2 10 -4 0 -5 -4 -12 -9 -16
-5 -3 -12 -19 -16 -35 -4 -17 -11 -30 -16 -30 -12 0 -11 4 2 34 10 20 9 29 -2
43 -9 11 -10 14 -1 9 8 -5 12 0 12 18 0 22 -4 24 -34 23 -21 -1 -32 -6 -29
-14 6 -15 -28 -22 -50 -9 -14 9 -22 5 -42 -19 -13 -17 -25 -43 -26 -60 -1 -30
-1 -30 -9 -5 -4 14 -8 19 -9 11 -1 -8 -4 -11 -7 -8 -4 4 -2 12 3 19 6 7 14 29
17 48 4 19 11 44 16 55 18 43 30 89 30 120 0 17 3 35 7 39 10 10 33 -23 27
-39z m592 8 c-11 -11 -19 6 -11 24 8 17 8 17 12 0 3 -10 2 -21 -1 -24z m-1246
1 c-6 -14 -8 -29 -6 -33 8 -12 -11 -34 -23 -27 -16 10 -13 47 6 68 23 26 34
22 23 -8z m1100 11 c0 -8 -4 -15 -10 -15 -5 0 -7 7 -4 15 4 8 8 15 10 15 2 0
4 -7 4 -15z m-732 -23 c9 -9 17 -32 17 -50 -1 -17 3 -32 7 -32 4 0 8 -7 8 -15
0 -8 -4 -15 -9 -15 -12 0 -23 29 -15 42 4 6 1 13 -5 17 -11 7 -34 71 -25 71 2
0 12 -8 22 -18z m682 -17 c0 -8 -4 -15 -10 -15 -5 0 -7 7 -4 15 4 8 8 15 10
15 2 0 4 -7 4 -15z m-76 -21 c5 -12 2 -15 -10 -10 -8 3 -20 6 -25 6 -5 0 -9 5
-9 10 0 16 37 11 44 -6z m-661 -26 c3 -9 -7 -13 -31 -14 -31 -1 -33 1 -16 13
22 16 40 17 47 1z m757 2 c-13 -9 -13 -11 0 -20 12 -8 12 -10 -5 -10 -14 0
-21 6 -21 20 0 14 7 20 21 20 17 0 17 -2 5 -10z m-171 -46 c12 -15 21 -33 21
-40 0 -8 8 -14 18 -14 20 0 50 -45 39 -57 -4 -3 -7 -1 -7 5 0 7 -7 12 -15 12
-8 0 -15 7 -15 15 0 18 -5 19 -33 3 -19 -9 -20 -9 -11 3 9 11 7 21 -7 44 -11
17 -19 26 -19 20 -1 -11 -29 35 -30 48 0 13 38 -12 59 -39z m298 14 c-3 -8 -6
-5 -6 6 -1 11 2 17 5 13 3 -3 4 -12 1 -19z m-827 -29 c0 -5 6 -7 13 -3 6 4 4
-2 -6 -13 -9 -11 -18 -38 -19 -61 -1 -33 -4 -40 -15 -31 -8 7 -10 17 -4 27 10
17 3 52 -10 52 -10 0 22 38 34 39 4 1 7 -4 7 -10z m477 -51 c-3 -8 -6 -5 -6 6
-1 11 2 17 5 13 3 -3 4 -12 1 -19z m-214 -38 c-17 -29 -33 -35 -40 -13 -5 14
24 43 43 43 13 0 12 -5 -3 -30z m161 -16 c3 -8 2 -12 -4 -9 -6 3 -10 10 -10
16 0 14 7 11 14 -7z m157 -29 c25 8 24 1 -3 -25 -26 -24 -38 -26 -38 -4 0 14
-2 13 -17 -2 -16 -15 -17 -15 -24 2 -3 11 -1 21 4 23 6 2 20 14 32 27 l20 23
3 -25 c3 -19 8 -24 23 -19z m-1321 7 c0 -4 26 -9 57 -10 31 -1 60 -6 63 -11 3
-4 28 -14 56 -21 42 -11 50 -16 46 -32 -3 -12 1 -18 12 -18 9 0 16 -6 16 -14
0 -16 -27 -29 -34 -17 -9 14 -77 21 -97 10 -13 -6 -19 -6 -19 1 0 5 5 10 11
10 5 0 7 5 4 11 -5 6 6 9 31 7 23 -2 39 2 41 10 3 6 0 12 -7 12 -6 0 -8 -4 -5
-10 13 -21 -19 -9 -42 16 -19 20 -27 23 -38 14 -8 -6 -36 -10 -64 -9 -28 2
-56 -3 -64 -9 -12 -10 -16 -9 -21 4 -4 9 -9 14 -13 11 -3 -4 0 -13 6 -21 16
-19 6 -36 -20 -36 -11 0 -18 4 -14 9 3 6 -13 13 -35 18 -23 4 -40 12 -40 17 1
5 -4 12 -11 17 -10 6 -10 10 0 23 10 11 29 14 87 11 42 -2 74 0 74 6 0 5 5 9
10 9 6 0 10 -4 10 -8z m1398 -10 c2 -7 -2 -11 -9 -10 -8 2 -15 -7 -17 -19 -2
-13 -10 -23 -18 -23 -17 0 -18 -22 -2 -38 9 -9 9 -15 0 -24 -9 -9 -12 -7 -12
9 0 35 -19 37 -34 3 -9 -22 -15 -28 -19 -17 -7 19 40 97 59 97 8 0 14 9 14 21
0 23 30 24 38 1z m52 -42 c0 -5 -5 -10 -11 -10 -5 0 -7 5 -4 10 3 6 8 10 11
10 2 0 4 -4 4 -10z m-1664 -9 c-4 -5 0 -12 6 -14 8 -3 6 -6 -4 -6 -18 -1 -24
10 -11 22 9 10 15 8 9 -2z m1716 -53 c-7 -7 -12 -8 -12 -2 0 14 12 26 19 19 2
-3 -1 -11 -7 -17z"/>
<path d="M1242 670 c0 -14 2 -19 5 -12 2 6 2 18 0 25 -3 6 -5 1 -5 -13z"/>
<path d="M1256 565 c-9 -26 -7 -32 5 -12 6 10 9 21 6 23 -2 3 -7 -2 -11 -11z"/>
<path d="M1486 537 c3 -10 9 -15 12 -12 3 3 0 11 -7 18 -10 9 -11 8 -5 -6z"/>
<path d="M1576 535 c-3 -9 -6 -22 -5 -28 0 -7 5 -1 10 12 5 13 8 26 5 28 -2 2
-6 -3 -10 -12z"/>
</g>
</svg>
